<?xml version="1.0" encoding="UTF-8" standalone="no"?>
<svg
   xmlns:dc="http://purl.org/dc/elements/1.1/"
   xmlns:cc="http://creativecommons.org/ns#"
   xmlns:rdf="http://www.w3.org/1999/02/22-rdf-syntax-ns#"
   xmlns:svg="http://www.w3.org/2000/svg"
   xmlns="http://www.w3.org/2000/svg"
   viewBox="0 0 491.45334 292.79999"
   height="292.79999"
   width="491.45334"
   xml:space="preserve"
   id="svg2"
   version="1.1"><metadata
     id="metadata8"><rdf:RDF><cc:Work
         rdf:about=""><dc:format>image/svg+xml</dc:format><dc:type
           rdf:resource="http://purl.org/dc/dcmitype/StillImage" /></cc:Work></rdf:RDF></metadata><defs
     id="defs6"><clipPath
       id="clipPath20"
       clipPathUnits="userSpaceOnUse"><path
         id="path18"
         d="M 1098.25,1097.69 H 7.51172 V 2188.43 H 1098.25 Z" /></clipPath><linearGradient
       id="linearGradient26"
       spreadMethod="pad"
       gradientTransform="matrix(1090.74,-1090.74,-1090.74,-1090.74,7.51465,2188.43)"
       gradientUnits="userSpaceOnUse"
       y2="0"
       x2="1"
       y1="0"
       x1="0"><stop
         id="stop22"
         offset="0"
         style="stop-opacity:1;stop-color:#1d3c34" /><stop
         id="stop24"
         offset="1"
         style="stop-opacity:1;stop-color:#1f6c28" /></linearGradient><clipPath
       id="clipPath60"
       clipPathUnits="userSpaceOnUse"><path
         id="path58"
         d="M 2189.17,7.48828 H 1098.39 V 1098.24 h 1090.78 z" /></clipPath><linearGradient
       id="linearGradient66"
       spreadMethod="pad"
       gradientTransform="matrix(-1090.77,1090.77,1090.77,1090.77,2189.17,7.47995)"
       gradientUnits="userSpaceOnUse"
       y2="0"
       x2="1"
       y1="0"
       x1="0"><stop
         id="stop62"
         offset="0"
         style="stop-opacity:1;stop-color:#1d3c34" /><stop
         id="stop64"
         offset="1"
         style="stop-opacity:1;stop-color:#1f6c28" /></linearGradient></defs><g
     transform="matrix(1.3333333,0,0,-1.3333333,0,292.8)"
     id="g10"><g
       transform="scale(0.1)"
       id="g12"><g
         id="g14"><g
           clip-path="url(#clipPath20)"
           id="g16"><path
             id="path28"
             style="fill:url(#linearGradient26);fill-opacity:1;fill-rule:nonzero;stroke:none"
             d="M 1098.25,1097.69 H 7.51172 V 2188.43 H 1098.25 V 1097.69" /></g></g><path
         id="path30"
         style="fill:#101d06;fill-opacity:1;fill-rule:nonzero;stroke:none"
         d="M 14.9883,1105.19 H 1090.73 V 2180.93 H 14.9883 V 1105.19 Z m 1083.2617,-7.5 v 7.5 z M -0.0117188,1090.19 V 2195.95 H 1105.75 V 1090.19 H -0.0117188 v 0" /><path
         id="path32"
         style="fill:#ffffff;fill-opacity:1;fill-rule:nonzero;stroke:none"
         d="m 288.508,1433.24 h 148.18 c 68.988,0 110.707,21.33 110.707,84.33 0,68.15 -42.582,92.84 -111.567,92.84 h -147.32 z m 0,262.31 h 135.41 c 50.23,0 96.25,19.6 96.25,77.51 0,46 -29.848,75.79 -96.25,75.79 h -135.41 z m -114.121,243.56 h 285.308 c 99.629,0 179.653,-50.22 179.653,-150.73 0,-66.43 -36.582,-109.85 -103.032,-122.6 v -1.72 c 83.457,-8.51 130.278,-77.5 130.278,-149.88 0,-151.58 -108.125,-181.41 -234.16,-181.41 H 174.387 v 606.34" /><path
         id="path34"
         style="fill:#ffffff;fill-opacity:1;fill-rule:nonzero;stroke:none"
         d="m 738.074,1763.69 h 103.93 v -59.59 h 1.695 c 24.707,49.37 72.387,69.8 132.856,69.8 v -105.6 c -70.703,0 -134.551,-33.2 -134.551,-126.86 v -208.67 h -103.93 v 430.92" /><path
         id="path36"
         style="fill:#ffffff;fill-opacity:1;fill-rule:nonzero;stroke:none"
         d="m 862.742,2038.14 h 8.93 c 9.121,0 16.226,4.2 16.226,13.86 0,10.39 -6.011,16.76 -16.406,16.76 -12.574,0 -16.597,-10.94 -17.5,-21.33 l -24.258,5.12 c 4.004,24.06 19.321,36.64 43.579,36.64 20.234,0 39.023,-10.76 39.023,-33.18 0,-14.42 -6.938,-22.62 -20.434,-26.08 v -0.37 c 15.508,-3.63 23.34,-14.76 23.536,-30.62 0,-25.73 -21.153,-38.11 -44.864,-38.11 -24.258,0 -43.023,11.29 -43.023,42.66 h 23.34 c 0,-13.3 6.738,-22.25 20.41,-22.25 11.679,0 18.609,7.85 18.609,19.14 0,13.87 -8.75,18.42 -18.238,18.42 h -8.93 v 19.34" /><path
         id="path38"
         style="fill:#ffffff;fill-opacity:1;fill-rule:nonzero;stroke:none"
         d="m 941.184,2087 h 69.276 l -2.36,-21.52 h -47.955 l -3.829,-25.88 c 6.372,5.65 14.043,8.75 22.247,8.75 26.427,0 39.027,-19.51 39.027,-42.48 0,-28.46 -19.887,-45.04 -46.137,-45.04 -23.16,0 -42.129,11.49 -43.223,36.47 l 25.532,1.99 c 0.176,-10.39 6.929,-19.14 17.871,-19.14 14.937,0 20.43,12.58 20.43,25.53 0,16.4 -8.403,23.34 -20.801,23.34 -9.121,0 -14.219,-4.01 -17.676,-11.86 l -21.152,1.64 8.75,68.2" /><path
         id="path40"
         style="fill:#ffffff;fill-opacity:1;fill-rule:nonzero;stroke:none"
         d="m 1424.91,1604.72 c 20.18,0 26.9,2.52 26.9,15.96 0,52.95 -39.5,97.48 -97.48,97.48 -56.29,0 -94.11,-44.53 -94.11,-97.48 0,-13.44 5.88,-15.96 26.04,-15.96 z m -136.11,-48.75 c -29.42,0 -32.77,-0.83 -32.77,-23.51 0,-68.07 55.44,-130.26 131.07,-130.26 31.09,0 59.67,9.24 87.4,28.58 19.32,13.44 31.94,29.41 48.73,29.41 12.6,0 21.86,-9.26 21.86,-21.01 0,-12.6 -13.46,-33.62 -39.49,-54.61 -46.23,-37.81 -89.09,-57.15 -147.06,-57.15 -121.85,0 -212.59,94.12 -212.59,215.96 0,133.61 92.42,229.39 222.67,229.39 110.08,0 178.99,-67.21 178.99,-173.92 0,-39.5 -10.1,-42.88 -47.91,-42.88 h -205.02 c -2.52,0 -4.2,0 -5.88,0" /><path
         id="path42"
         style="fill:#ffffff;fill-opacity:1;fill-rule:nonzero;stroke:none"
         d="m 1788.66,1548.41 c -62.19,0 -97.48,-29.41 -97.48,-77.3 0,-44.53 31.1,-74.79 82.36,-74.79 57.97,0 77.31,24.38 77.31,81.51 v 63.03 c -22.7,5.03 -43.69,7.55 -62.19,7.55 z m 176.47,-142.85 c 25.23,-7.55 40.35,-7.55 40.35,-25.19 0,-25.22 -41.19,-53.79 -95.8,-53.79 -31.96,0 -53.79,44.53 -62.19,44.53 -13.46,0 -50.43,-44.53 -125.21,-44.53 -83.19,0 -139.5,52.93 -139.5,131.1 0,89.89 67.23,145.37 188.25,145.37 21.83,0 48.73,-2.53 79.82,-7.57 v 45.38 c 0,50.41 -22.7,78.14 -63.03,78.14 -28.57,0 -52.09,-12.6 -73.94,-37.81 -17.66,-20.18 -28.58,-43.69 -63.87,-43.69 -22.7,0 -36.97,15.95 -36.97,40.33 0,48.73 64.7,94.94 177.3,94.94 64.71,0 110.08,-17.63 134.45,-48.73 21.86,-27.74 23.54,-69.74 23.54,-130.25 v -137.8 c 0,-29.41 4.2,-47.06 16.8,-50.43" /><path
         id="path44"
         style="fill:#ffffff;fill-opacity:1;fill-rule:nonzero;stroke:none"
         d="m 2175.6,1625.72 c 0,-17.63 0.84,-26.04 8.39,-26.04 4.2,0 21.86,10.92 48.75,35.3 34.46,31.93 53.77,51.25 53.77,61.32 0,10.94 -31.93,10.1 -31.93,33.62 0,28.57 34.45,34.45 105.88,34.45 52.11,0 78.14,-10.07 78.14,-31.93 0,-32.77 -40.33,-22.68 -75.62,-43.69 -16.8,-10.08 -35.29,-29.41 -58.81,-52.93 -11.78,-11.78 -18.5,-19.34 -18.5,-24.38 0,-8.39 15.12,-27.73 42.02,-63.03 59.66,-77.3 100,-121.83 120.17,-136.97 28.56,-20.15 65.53,-13.43 65.53,-42.01 0,-25.2 -26.87,-34.45 -85.7,-34.45 -24.38,0 -40.34,2.52 -45.38,4.2 -23.53,8.42 -42.85,38.65 -77.3,82.36 -73.95,94.1 -112.62,143.69 -121.02,143.69 -7.55,0 -8.39,-6.74 -8.39,-22.69 0,-5.04 0,-10.92 0,-18.48 0,-70.59 1.68,-110.94 11.75,-122.7 11.78,-13.43 43.71,-9.23 43.71,-36.13 0,-24.37 -31.09,-30.25 -98.32,-30.25 -74.78,0 -106.71,4.2 -106.71,32.77 0,19.34 17.63,19.34 31.93,26.89 17.64,10.08 21,40.34 21,97.49 0,31.93 -0.84,70.58 -0.84,119.31 0,18.48 0,36.13 0,52.93 0,125.22 -0.84,173.28 -11.76,185.88 -6.72,7.56 -21.02,9.24 -38.65,15.14 -13.46,4.2 -19.34,7.56 -19.34,20.16 0,17.65 15.98,24.36 47.07,35.28 48.73,16.82 85.7,21.86 101.66,21.86 18.5,0 23.53,-10.94 23.53,-36.14 0,-44.52 -5.03,-89.23 -5.03,-173.27 v -107.56" /><path
         id="path46"
         style="fill:#ffffff;fill-opacity:1;fill-rule:nonzero;stroke:none"
         d="m 2628.55,1929.33 c 38.66,0 64.71,-24.38 64.71,-54.63 0,-30.25 -28.57,-56.28 -69.74,-56.28 -37.82,0 -63.87,22.67 -63.87,52.09 0,31.08 29.41,58.82 68.9,58.82 z m 55.47,-454.02 c 0,-45.37 2.52,-71.42 16.8,-78.99 19.34,-10.91 37.81,-8.39 37.81,-31.09 0,-24.37 -30.25,-30.25 -97.48,-30.25 -74.78,0 -107.54,4.2 -107.54,32.77 0,19.34 17.65,19.34 31.92,26.89 16.81,9.25 20.17,30.26 20.17,67.23 0,17.64 -0.84,37.81 -0.84,63.03 0,15.96 0,31.07 0,44.53 0,68.91 -0.84,105.04 -15.13,112.6 -20.99,10.92 -46.2,9.24 -46.2,30.25 0,13.44 11.76,22.68 34.45,31.94 57.98,22.67 101.67,28.55 110.07,28.55 16.81,0 21.85,-11.76 21.85,-36.13 0,-10.92 0,-26.04 -0.84,-44.53 l -3.36,-109.24 c -0.84,-36.98 -1.68,-73.11 -1.68,-107.56" /><path
         id="path48"
         style="fill:#ffffff;fill-opacity:1;fill-rule:nonzero;stroke:none"
         d="m 3052.3,1772.77 c 43.69,0 83.18,-21 107.56,-49.57 33.61,-40.33 36.13,-89.9 36.13,-157.13 0,-31.93 0,-51.27 0,-57.98 0,-20.16 -0.84,-36.98 -0.84,-52.1 0,-33.61 2.52,-52.1 19.34,-61.35 14.27,-7.55 31.93,-7.55 31.93,-26.89 0,-28.57 -31.93,-31.93 -105.04,-31.93 -68.9,0 -100.84,4.2 -100.84,29.41 0,22.7 18.48,20.18 37.81,31.09 15.12,8.4 17.64,36.98 17.64,89.07 0,135.29 -1.68,205.04 -79.82,205.04 -30.26,0 -60.51,-19.32 -75.63,-50.41 -15.96,-31.93 -16.79,-88.25 -16.79,-169.75 0,-42.01 0.83,-65.55 15.95,-73.95 19.34,-10.91 37.81,-8.39 37.81,-31.09 0,-24.37 -30.25,-30.25 -97.48,-30.25 -74.78,0 -107.55,4.2 -107.55,32.77 0,19.34 17.65,19.34 31.93,26.89 16.82,9.25 20.17,30.26 20.17,67.23 0,17.64 -0.83,37.81 -0.83,63.03 0,15.96 0,31.07 0,44.53 0,68.91 -0.84,105.04 -15.14,112.6 -21,10.92 -46.21,9.24 -46.21,30.25 0,13.44 11.76,22.68 34.45,31.94 54.63,20.99 94.96,26.87 105.88,26.87 15.96,0 22.69,-7.56 22.69,-26.87 v -23.54 c 0,-2.52 0,-4.2 0,-5.04 0,-3.36 0,-5.04 3.36,-5.04 1.68,0 3.36,0.84 4.2,1.68 l 10.08,9.24 c 25.22,22.7 47.89,51.25 109.24,51.25" /><path
         id="path50"
         style="fill:#ffffff;fill-opacity:1;fill-rule:nonzero;stroke:none"
         d="m 3457.3,1524.06 c 47.89,0 84.02,38.65 84.02,96.62 0,59.67 -35.29,98.32 -83.18,98.32 -43.71,0 -79,-39.49 -79,-97.48 0,-59.65 32.77,-97.46 78.16,-97.46 z m -105.88,-236.13 c 0,-37.82 41.17,-66.41 113.44,-66.41 80.66,0 132.75,36.16 132.75,76.49 0,26.89 -19.31,42.85 -56.29,42.85 -26.05,0 -64.7,-8.4 -114.27,-8.4 -16.82,0 -34.46,0.84 -53.79,3.36 -15.12,-14.28 -21.84,-29.42 -21.84,-47.89 z m -72.26,322.67 c 0,92.45 77.3,162.17 185.7,162.17 29.41,0 66.39,-6.72 110.92,-16.8 22.69,0 47.05,11.76 79.82,34.46 11.76,-7.56 18.5,-17.66 18.5,-27.74 0,-23.51 -17.66,-47.05 -52.11,-64.71 11.76,-22.67 17.65,-44.53 17.65,-69.74 0,-92.42 -73.94,-159.65 -188.24,-159.65 -31.07,0 -59.65,4.2 -85.7,13.44 -11.76,-12.6 -17.64,-23.52 -17.64,-33.62 0,-27.71 27.72,-39.48 83.19,-39.48 42.85,0 86.54,9.25 131.93,9.25 79.82,0 122.67,-33.61 122.67,-93.28 0,-87.4 -94.12,-158.83 -236.97,-158.83 -115.96,0 -189.9,55.45 -189.9,113.46 0,31.09 20.18,52.09 60.51,76.46 -33.62,11.76 -52.11,34.46 -52.11,63.03 0,29.39 21.01,57.13 62.19,82.34 -33.62,28.58 -50.41,65.55 -50.41,109.24" /><path
         id="path52"
         style="fill:#ffffff;fill-opacity:1;fill-rule:nonzero;stroke:none"
         d="m 2552.26,529.559 c 0,23.519 0,39.5 -8.4,50.41 -17.63,23.531 -53.77,42.851 -90.74,42.851 -61.35,0 -104.2,-52.922 -104.2,-145.371 0,-99.98 48.73,-162.168 110.07,-162.168 59.66,0 93.27,32.77 93.27,97.457 z m 4.21,-242.008 c 0,7.558 -1.68,10.91 -3.37,10.91 -2.52,0 -12.6,-9.231 -31.91,-23.512 -32.78,-24.379 -64.72,-36.969 -100.85,-36.969 -104.2,0 -180.66,81.5 -180.66,207.54 0,139.492 85.7,235.269 206.7,235.269 58.83,0 94.96,-25.211 101.68,-25.211 5.04,0 5.88,7.551 5.88,21.012 V 707 c 0,38.66 -5.04,51.27 -26.87,58.832 -20.18,6.719 -37.82,6.719 -37.82,26.059 0,18.468 17.64,26.871 52.93,39.488 36.96,13.441 66.37,18.48 87.39,18.48 19.32,0 26.88,-10.078 26.88,-35.3 0,-14.27 -5.04,-89.239 -5.04,-265.68 0,-143.699 0.84,-216.797 12.61,-225.199 18.48,-13.442 52.09,-5.039 52.09,-30.25 0,-20.16 -22.69,-26.899 -66.38,-41.18 -29.42,-10.07 -59.67,-13.43 -70.59,-13.43 -15.95,0 -22.67,8.391 -22.67,27.711 v 21.02" /><g
         id="g54"><g
           clip-path="url(#clipPath60)"
           id="g56"><path
             id="path68"
             style="fill:url(#linearGradient66);fill-opacity:1;fill-rule:nonzero;stroke:none"
             d="M 2189.17,7.48828 H 1098.39 V 1098.24 H 2189.17 V 7.48828" /></g></g><path
         id="path70"
         style="fill:#101d06;fill-opacity:1;fill-rule:nonzero;stroke:none"
         d="m 1105.87,14.9883 h 1075.8 L 2181.65,1090.74 H 1105.87 V 14.9883 Z M 2189.17,7.48828 V 14.9883 Z M 1090.87,0.0117188 V 1105.74 h 1105.8 V 0.0117188 h -1105.8 v 0" /><path
         id="path72"
         style="fill:#ffffff;fill-opacity:1;fill-rule:nonzero;stroke:none"
         d="m 1294.11,343.09 h 148.13 c 69,0 110.76,21.289 110.76,84.32 0,68.11 -42.6,92.789 -111.58,92.789 h -147.31 z m 0,262.281 h 135.39 c 50.22,0 96.23,19.59 96.23,77.469 0,45.98 -29.82,75.808 -96.23,75.808 h -135.39 z m -114.1,243.527 h 285.25 c 99.65,0 179.69,-50.25 179.69,-150.726 0,-66.41 -36.62,-109.801 -103.07,-122.594 v -1.719 c 83.48,-8.5 130.32,-77.468 130.32,-149.828 C 1672.2,272.43 1564.05,242.59 1438,242.59 h -257.99 v 606.308" /><path
         id="path74"
         style="fill:#ffffff;fill-opacity:1;fill-rule:nonzero;stroke:none"
         d="m 2000.03,458.051 c -13.59,-6.813 -30.66,-11.93 -49.41,-15.313 l -57.08,-11.949 c -39.16,-7.66 -71.5,-18.707 -71.5,-59.59 0,-32.379 29.77,-53.668 67.27,-53.668 48.53,0 110.72,23.84 110.72,79.18 z m 103.89,-143.063 c 0,-44.277 10.21,-63.027 16.15,-72.398 h -109.85 c -6.77,10.23 -10.19,28.121 -10.19,39.191 -40.02,-32.359 -86.9,-49.371 -140.55,-49.371 -81.74,0 -146.46,51.93 -146.46,135.352 0,84.34 67.26,121.84 131.15,134.609 l 43.42,8.481 c 37.48,7.648 86.03,16.187 112.44,25.539 v 12.781 c 0,42.578 -36.62,54.488 -81.78,54.488 -60.45,0 -80.06,-17.871 -80.06,-64.73 l -103.88,4.281 c 0,101.309 89.41,140.449 183.94,140.449 92.87,0 185.67,-18.73 185.67,-141.308 V 314.988" /><path
         id="path76"
         style="fill:#ffffff;fill-opacity:1;fill-rule:nonzero;stroke:none"
         d="m 1927.04,1004 h 69.3 l -2.38,-21.531 h -47.95 l -3.83,-25.899 c 6.38,5.668 14.04,8.77 22.24,8.77 26.45,0 39.03,-19.512 39.03,-42.5 0,-28.43 -19.89,-45.031 -46.14,-45.031 -23.16,0 -42.12,11.5 -43.22,36.48 l 25.53,1.992 c 0.17,-10.39 6.93,-19.14 17.87,-19.14 14.96,0 20.43,12.578 20.43,25.531 0,16.398 -8.4,23.34 -20.8,23.34 -9.1,0 -14.22,-4.012 -17.68,-11.864 l -21.15,1.641 8.75,68.211" /><path
         id="path78"
         style="fill:#ffffff;fill-opacity:1;fill-rule:nonzero;stroke:none"
         d="m 2043.58,918.66 c 0,-12.769 6.39,-20.422 18.07,-20.422 11.66,0 18.05,7.653 18.05,20.422 0,12.762 -6.39,20.41 -18.05,20.41 -11.68,0 -18.07,-7.648 -18.07,-20.41 z m 34.65,52.879 c -0.72,8.75 -6.36,14.211 -14.76,14.211 -17.7,0 -21.7,-23.141 -21.7,-37.73 h 0.37 c 3.08,4.55 10.21,11.48 24.24,11.48 23.16,0 36.66,-16.602 36.66,-40.84 0,-22.98 -16.78,-40.851 -41.39,-40.851 -36.11,0 -44.32,32.281 -44.32,61.089 0,39.204 15.32,67.282 46.31,67.282 20.8,0 34.65,-10.758 38.13,-31.539 l -23.54,-3.102" /></g></g></svg>