<?xml version="1.0" standalone="no"?>
<!DOCTYPE svg PUBLIC "-//W3C//DTD SVG 20010904//EN"
 "http://www.w3.org/TR/2001/REC-SVG-20010904/DTD/svg10.dtd">
<svg version="1.0" xmlns="http://www.w3.org/2000/svg"
 width="30.000000pt" height="30.000000pt" 
 style="background-color:rgba(255,255,255,0); transform:rotate(-30deg)" viewBox="0 0 450.000000 450.000000"
 preserveAspectRatio="xMidYMid meet">

<g transform="translate(0.000000,450.000000) scale(0.100000,-0.100000)"
fill="#060e02" stroke="#fff" >
<path  d="M1216 4132 c-8 -13 83 -186 144 -277 29 -44 82 -119 118 -168 35 -48
65 -93 66 -100 1 -7 21 -50 44 -95 40 -77 44 -92 58 -215 16 -150 35 -221 70
-263 l24 -29 -3 95 c-4 111 -23 197 -82 375 -33 102 -50 138 -78 167 -19 21
-56 73 -82 115 -72 120 -259 402 -267 402 -4 1 -9 -3 -12 -7z"/>
<path d="M3159 3977 c-59 -89 -128 -197 -154 -240 -26 -42 -63 -94 -82 -115
-28 -29 -45 -65 -78 -167 -58 -176 -77 -263 -82 -374 -5 -104 2 -110 41 -33
29 58 33 76 51 234 12 115 17 134 54 205 23 44 41 84 41 90 0 6 32 54 70 108
116 159 171 245 217 334 40 80 53 122 36 120 -5 0 -56 -73 -114 -162z"/>
<path  d="M2040 3962 c0 -4 14 -21 30 -37 35 -34 38 -45 9 -45 -31 0 -14 -17
49 -49 69 -35 91 -58 102 -105 12 -53 -7 -113 -50 -156 -39 -39 -254 -137
-322 -147 -21 -3 -38 -10 -38 -16 0 -5 16 -25 37 -44 40 -38 42 -38 153 -7
102 28 385 26 503 -5 l87 -22 30 21 c26 18 50 49 50 63 0 2 -17 7 -37 9 -67
10 -284 109 -324 149 -42 42 -61 102 -49 155 11 47 35 72 95 99 28 12 56 29
64 38 12 15 11 17 -8 17 -29 0 -26 11 9 45 17 16 30 33 30 37 0 16 -60 -22
-86 -56 -22 -27 -32 -32 -48 -26 -12 4 -34 3 -51 -1 -18 -6 -42 -5 -63 2 -18
6 -40 8 -48 5 -10 -4 -25 6 -41 24 -26 32 -83 67 -83 52z"/>
<path  d="M1955 3770 c-79 -26 -153 -83 -183 -141 -54 -107 -34 -175 51 -171
44 1 199 58 299 108 79 40 117 154 67 200 -31 28 -155 30 -234 4z"/>
<path   d="M2340 3783 c-53 -20 -66 -83 -30 -153 23 -45 53 -63 218 -129 125
-50 185 -56 213 -22 23 28 24 55 4 112 -31 88 -91 141 -204 179 -57 19 -165
26 -201 13z"/>
<path d="M2100 3339 c-140 -18 -262 -73 -315 -143 -22 -30 -28 -47 -27 -89 0
-29 7 -67 15 -86 10 -24 12 -44 6 -70 -5 -20 -9 -55 -9 -79 0 -40 4 -47 70
-108 77 -73 131 -150 208 -294 59 -110 137 -298 147 -352 7 -38 8 -38 54 -38
l48 0 11 49 c6 27 36 106 66 176 l54 127 -174 -4 c-168 -3 -207 4 -138 25 35
11 269 15 304 5 23 -6 28 -1 54 50 50 100 114 188 186 256 66 61 70 68 70 108
0 24 -4 59 -9 79 -6 26 -4 46 6 70 8 19 16 57 16 85 1 42 -4 58 -27 88 -91
119 -347 180 -616 145z m548 -304 c12 -4 22 -14 22 -22 0 -11 -11 -13 -52 -9
-199 21 -571 13 -747 -15 -63 -10 -88 -6 -61 11 13 8 184 35 275 44 66 6 538
-1 563 -9z"/>
<path d="M522 2918 c8 -26 93 -57 184 -67 101 -12 134 -23 221 -76 32 -19 93
-47 135 -61 42 -14 92 -36 110 -49 18 -14 43 -29 56 -34 12 -6 22 -14 22 -19
0 -5 19 -39 43 -76 43 -66 43 -67 61 -47 21 23 24 16 -47 103 -21 26 -47 64
-56 84 -12 25 -29 41 -52 49 -19 7 -56 22 -84 34 -167 70 -306 113 -408 127
-59 8 -124 21 -143 29 -44 18 -47 18 -42 3z"/>
<path d="M3932 2914 c-18 -8 -81 -21 -140 -28 -101 -14 -240 -57 -407 -127
-27 -12 -65 -27 -84 -34 -23 -8 -40 -24 -52 -49 -9 -20 -35 -58 -56 -84 -71
-87 -68 -80 -47 -103 18 -20 18 -19 61 47 24 37 43 71 43 76 0 5 10 13 23 19
12 5 37 20 55 34 18 13 63 33 100 45 37 12 105 44 152 70 89 51 130 64 242 75
67 6 149 39 156 63 5 15 -4 14 -46 -4z"/>
<path  d="M1680 2762 c-93 -60 -280 -245 -280 -278 0 -6 28 -31 62 -55 34 -24
94 -75 133 -115 85 -87 125 -108 259 -138 l103 -22 -22 45 c-13 25 -29 84 -36
130 -11 76 -16 89 -50 126 -61 66 -89 136 -116 293 l-8 43 -45 -29z"/>
<path  d="M2765 2738 c-15 -122 -54 -217 -115 -284 -30 -33 -39 -52 -45 -95 -8
-69 -32 -156 -51 -184 l-14 -22 104 23 c136 30 176 51 261 138 39 40 99 91
133 115 34 24 62 50 62 56 0 33 -213 240 -290 284 l-38 21 -7 -52z"/>
<path d="M1775 2720 c14 -100 54 -186 114 -247 38 -38 41 -45 41 -95 0 -83 24
-149 74 -205 42 -47 119 -93 132 -80 10 10 -41 146 -102 276 -59 125 -158 280
-223 351 l-42 45 6 -45z"/>
<path  d="M2685 2718 c-66 -77 -164 -232 -219 -349 -61 -130 -112 -266 -102
-276 13 -13 89 33 130 78 51 57 79 136 74 208 -3 46 -1 51 41 92 24 24 57 71
73 104 26 57 55 172 45 181 -3 3 -21 -14 -42 -38z"/>
<path  d="M1326 2393 c-62 -86 -173 -275 -244 -418 -85 -169 -325 -711 -377
-850 -104 -278 -131 -544 -65 -650 20 -33 68 -81 73 -74 2 2 27 49 56 104 72
139 132 215 271 345 117 110 157 161 178 230 6 19 20 107 32 195 31 244 53
312 148 463 36 57 51 72 69 72 32 0 57 14 128 73 66 56 168 107 259 131 33 8
68 24 78 34 19 19 18 19 -61 25 -189 15 -312 73 -353 165 -11 25 -39 66 -62
91 -23 25 -54 61 -69 79 l-26 33 -35 -48z"/>
<path d="M3130 2433 c0 -4 -32 -44 -70 -87 -39 -43 -70 -84 -70 -91 0 -7 -13
-30 -28 -51 -52 -71 -173 -119 -333 -131 -79 -6 -80 -6 -61 -25 10 -10 45 -26
78 -34 91 -24 193 -75 259 -131 71 -59 96 -73 128 -73 18 0 33 -15 69 -72 94
-150 116 -219 148 -458 11 -85 23 -168 26 -185 13 -64 65 -133 184 -244 139
-131 199 -207 271 -346 29 -55 54 -102 56 -104 5 -7 53 41 73 74 66 107 40
369 -66 652 -52 140 -293 681 -379 853 -115 231 -284 499 -285 453z"/>
<path  d="M1959 2023 c-41 -37 -98 -85 -127 -106 -29 -22 -57 -49 -64 -60 -24
-46 -48 -167 -54 -279 -7 -114 -6 -117 20 -162 17 -29 30 -70 35 -115 10 -82
56 -178 77 -160 7 5 37 47 67 92 122 184 213 378 244 520 14 70 14 239 -1 277
-4 9 -30 24 -59 35 -28 11 -55 21 -58 23 -4 2 -40 -28 -80 -65z"/>
<path d="M2402 2066 c-64 -26 -67 -33 -67 -186 0 -125 16 -195 77 -335 52
-118 229 -414 249 -415 17 0 62 108 70 171 5 44 18 86 34 113 20 35 25 56 25
112 -1 96 -15 197 -40 276 -19 62 -25 71 -83 115 -34 26 -92 75 -130 110 -37
35 -71 62 -75 62 -4 -1 -31 -11 -60 -23z"/>
<path  d="M2222 1988 c6 -29 8 -86 6 -125 l-5 -73 27 0 27 0 -5 73 c-2 39 0 96
6 125 l9 52 -37 0 -37 0 9 -52z"/>
<path d="M1622 1751 c-155 -82 -243 -179 -282 -310 -10 -36 -26 -126 -35 -199
-9 -74 -25 -157 -35 -185 -11 -29 -20 -59 -20 -68 0 -9 -37 -52 -82 -95 -194
-184 -247 -244 -333 -374 -57 -86 -84 -135 -77 -142 19 -19 126 -21 188 -3
167 48 361 182 580 400 143 142 284 302 284 320 0 4 -9 20 -20 36 -28 38 -60
134 -60 178 0 20 -12 61 -26 91 -23 47 -26 68 -26 145 1 50 6 123 12 164 6 41
9 75 8 77 -2 1 -36 -14 -76 -35z"/>
<path d="M2804 1753 c15 -88 23 -231 17 -273 -4 -25 -16 -60 -25 -79 -10 -19
-22 -64 -26 -99 -6 -42 -21 -91 -45 -139 l-36 -73 62 -78 c91 -112 351 -369
444 -438 209 -156 359 -222 478 -211 33 3 63 9 68 14 11 11 -75 152 -157 260
-30 39 -114 126 -187 194 -73 67 -135 130 -138 138 -31 77 -52 169 -68 296
-11 83 -28 175 -40 205 -46 121 -137 212 -284 287 l-69 34 6 -38z"/>
<path d="M2207 1723 c-10 -61 -45 -161 -93 -262 -24 -52 -43 -95 -42 -96 2 -2
41 1 88 5 47 5 124 9 173 9 48 1 87 3 87 6 0 3 -12 29 -26 57 -36 71 -73 170
-93 248 -17 64 -18 65 -53 68 -34 3 -36 2 -41 -35z"/>
<path  d="M2320 1340 c-47 -4 -126 -5 -176 -2 l-90 5 -51 -79 c-28 -44 -68
-103 -88 -131 l-38 -53 78 -82 c123 -131 172 -158 295 -158 123 0 172 27 295
158 l77 82 -51 73 c-28 39 -68 100 -89 134 -27 45 -43 62 -57 61 -11 0 -58 -4
-105 -8z m68 -357 c3 -10 -29 -13 -137 -13 -82 0 -141 4 -141 10 0 20 271 23
278 3z"/>
</g>
</svg>
